<svg xmlns="http://www.w3.org/2000/svg" viewBox="0 0 609.84 443.54"><g id="freepik--Shadow--inject-98"><path d="M623.68,417.23c0-6.45-57.94-11.68-129.41-11.68-63.74,0-116.67,4.16-127.39,9.63l-7.26,0c-122.93,0-222.58,12-222.58,26.8s99.65,26.79,222.58,26.79S582.2,456.75,582.2,442c0-5.19-12.27-10-33.49-14.14C593,426,623.68,421.92,623.68,417.23Z" transform="translate(-71.98 -25.21)" style="fill:#1DD1A1"></path><path d="M623.68,417.23c0-6.45-57.94-11.68-129.41-11.68-63.74,0-116.67,4.16-127.39,9.63l-7.26,0c-122.93,0-222.58,12-222.58,26.8s99.65,26.79,222.58,26.79S582.2,456.75,582.2,442c0-5.19-12.27-10-33.49-14.14C593,426,623.68,421.92,623.68,417.23Z" transform="translate(-71.98 -25.21)" style="fill:#fff;opacity:0.4"></path></g><g id="freepik--credit-card--inject-98"><path d="M425.57,335.6,225.39,299a11,11,0,0,1-8.82-12.77l20.85-114a11,11,0,0,1,12.77-8.82l200.18,36.62a11,11,0,0,1,8.82,12.77l-20.85,114A11,11,0,0,1,425.57,335.6Z" transform="translate(-71.98 -25.21)" style="fill:#263238;stroke:#263238;stroke-linecap:round;stroke-linejoin:round;stroke-width:1.3504802788427561px"></path><path d="M422.4,194.93c-14.28,7.9-31,14.46-48.48,15.55-47.95,3-68.32-18.64-121.71-11.74A135.06,135.06,0,0,0,231.79,203l-8.94,48.86a124.06,124.06,0,0,1,49-22.25c47.14-9.88,66.91,7.61,109.5,1.52,25.26-3.61,47.85-19.8,62.05-32.37Z" transform="translate(-71.98 -25.21)" style="fill:#1DD1A1;stroke:#263238;stroke-linecap:round;stroke-linejoin:round;stroke-width:1.3504802788427561px"></path><path d="M234.19,189.93c1.88-.48,3.79-1,5.75-1.36,47.15-9.89,66.92,7.6,109.5,1.52a87.46,87.46,0,0,0,18.94-5l-117-21.4a12.22,12.22,0,0,0-14.22,9.82Z" transform="translate(-71.98 -25.21)" style="fill:#1DD1A1;stroke:#263238;stroke-linecap:round;stroke-linejoin:round;stroke-width:1.3504802788427561px"></path><rect x="251.09" y="200.14" width="24.12" height="23.31" rx="4.14" transform="translate(-29.56 -69.11) rotate(10.37)" style="fill:#fff;stroke:#263238;stroke-linecap:round;stroke-linejoin:round;stroke-width:1.3504802788427561px"></rect><rect x="259.41" y="208.19" width="7.48" height="7.23" rx="2.03" transform="translate(-29.57 -69.1) rotate(10.37)" style="fill:#fff;stroke:#263238;stroke-linecap:round;stroke-linejoin:round;stroke-width:1.3504802788427561px"></rect><path d="M252.91,200.73l7,1.28a2.48,2.48,0,0,1,2,2.9l-.52,2.89" transform="translate(-71.98 -25.21)" style="fill:none;stroke:#263238;stroke-linecap:round;stroke-linejoin:round;stroke-width:1.3504802788427561px"></path><path d="M276.64,205.07l-6.87-1.25a2.49,2.49,0,0,0-2.9,2l-.53,2.89" transform="translate(-71.98 -25.21)" style="fill:none;stroke:#263238;stroke-linecap:round;stroke-linejoin:round;stroke-width:1.3504802788427561px"></path><path d="M249.62,218.72l6.95,1.28a2.5,2.5,0,0,0,2.9-2l.53-2.89" transform="translate(-71.98 -25.21)" style="fill:none;stroke:#263238;stroke-linecap:round;stroke-linejoin:round;stroke-width:1.3504802788427561px"></path><path d="M273.34,223.07l-6.86-1.26a2.5,2.5,0,0,1-2-2.9L265,216" transform="translate(-71.98 -25.21)" style="fill:none;stroke:#263238;stroke-linecap:round;stroke-linejoin:round;stroke-width:1.3504802788427561px"></path><line x1="179.25" y1="184.98" x2="187.39" y2="186.47" style="fill:none;stroke:#263238;stroke-linecap:round;stroke-linejoin:round;stroke-width:1.3504802788427561px"></line><line x1="194.54" y1="187.78" x2="202.68" y2="189.27" style="fill:none;stroke:#263238;stroke-linecap:round;stroke-linejoin:round;stroke-width:1.3504802788427561px"></line><path d="M407.48,320.6a11.28,11.28,0,0,0,4.06-22.2l-15.07-2.76a11.28,11.28,0,1,0-4.06,22.2Z" transform="translate(-71.98 -25.21)" style="fill:#fff"></path></g><g id="freepik--Character--inject-98"><path d="M404.12,184.19s40.24-6.6,45.57-6.29,50.25,11.81,50.25,11.81a27.19,27.19,0,0,1,.95,8.24c-.25,4.26-4.92,11.12-4.92,11.12L449.8,188.23l-42.41,2Z" transform="translate(-71.98 -25.21)" style="fill:#fff;stroke:#263238;stroke-linecap:round;stroke-linejoin:round;stroke-width:1.3504802788427561px"></path><path d="M481.84,185.16l12.25,13.47-7.69-3.08,5.54,5.85-5.85-2.46-2.77,2.15L466.39,190l4.31,4.62s-20.63-10.78-21.55-10.78-40.33,5.85-40.33,5.85l3.47.28,37.51-1.75L496,209.07s4.67-6.86,4.92-11.12a27.19,27.19,0,0,0-.95-8.24S491.69,187.59,481.84,185.16Z" transform="translate(-71.98 -25.21)" style="fill:#1DD1A1;mix-blend-mode:multiply;opacity:0.5"></path><path d="M407.39,190.21s-9.95,3.44-11.5,3.3c-1.14-.11-6.59-.37-9.39-.5-.95,0-1.89,0-1.93-1h0a1.84,1.84,0,0,1,1.52-1.91l3.65-.63s-12.66-1.82-13.62-3.32,5.08-.82,6.62-1.08c2.39-.41,14.38-.26,14.38-.26l7-.66Z" transform="translate(-71.98 -25.21)" style="fill:#fff;stroke:#263238;stroke-linecap:round;stroke-linejoin:round;stroke-width:1.3504802788427561px"></path><path d="M465.26,155.5l-.84,14.37,4.61.73s4.19,16.05,5.53,17.06,11.91-4.89,11.91-4.89l6.52,7.82,8.72-6L497,177.33S500,150.06,499,144s-4.67-7.71-13-8.19a36.67,36.67,0,0,0-15,2.39s2.61-5-6.25-4.55-12.2,10-10.62,14.73S465.26,155.5,465.26,155.5Z" transform="translate(-71.98 -25.21)" style="fill:#fff;stroke:#263238;stroke-linecap:round;stroke-linejoin:round;stroke-width:1.3504802788427561px"></path><path d="M497,177.33S500,150.06,499,144s-4.67-7.71-13-8.19a36.67,36.67,0,0,0-15,2.39,3,3,0,0,0-.31-3.22,40.6,40.6,0,0,0-6.06,1.52c-2.86,1-6.31,2.13-9.19,3.05a12.3,12.3,0,0,0-1.51,8l3,4.18a28.35,28.35,0,0,0,8.45,3.79l-.17,2.77a33.93,33.93,0,0,0,5.3.65c3.08,0,7.69-2.46,7.69-2.46s-2.77,4.31.62,6.77a12.07,12.07,0,0,0,6.46,2.46s2.16,7.39,2.16,9.85c0,1.93-8.82,9.1-12.68,12.15,1.58.79,11.83-4.92,11.83-4.92l6.52,7.82,8.72-6Z" transform="translate(-71.98 -25.21)" style="fill:#1DD1A1;mix-blend-mode:multiply;opacity:0.5"></path><path d="M499,144c-1.05-6.1-4.67-7.71-13-8.19a36.67,36.67,0,0,0-15,2.39s2.61-5-6.25-4.55-12.2,10-10.62,14.73,11.22,7.17,11.22,7.17,11.64-.26,17.44-4.11c0,0-4,5.35-3.29,8.64a3.31,3.31,0,0,0,4,2.56l1.12,4.72s2.7,1.55,3.25.19.45-7.88,4-5.35,3.77,7.19,1.83,8.48-3.27.27-2,3.14,5.38,3.56,5.38,3.56S500,150.06,499,144Z" transform="translate(-71.98 -25.21)" style="fill:#263238;stroke:#263238;stroke-linecap:round;stroke-linejoin:round;stroke-width:1.3504802788427561px"></path><path d="M473,142.56s-4.09-4.09-6.31,1.11,2.22,8.18,12.26,6.69,16.71-4.46,17.83-4.46" transform="translate(-71.98 -25.21)" style="fill:none;stroke:#fff;stroke-linecap:round;stroke-linejoin:round;stroke-width:0.6752401394213781px"></path><path d="M480,154.45s7.8,1.48,18.58-1.49" transform="translate(-71.98 -25.21)" style="fill:none;stroke:#fff;stroke-linecap:round;stroke-linejoin:round;stroke-width:0.6752401394213781px"></path><path d="M472.46,162.79c.13.91-.1,1.7-.53,1.77s-.88-.63-1-1.54.09-1.7.52-1.77S472.32,161.88,472.46,162.79Z" transform="translate(-71.98 -25.21)" style="fill:#263238"></path><path d="M474.27,178s3.79,0,5.3-2.82" transform="translate(-71.98 -25.21)" style="fill:none;stroke:#263238;stroke-linecap:round;stroke-linejoin:round;stroke-width:1.3504802788427561px"></path><path d="M469.46,157a3.49,3.49,0,0,1,3.77.45" transform="translate(-71.98 -25.21)" style="fill:none;stroke:#263238;stroke-linecap:round;stroke-linejoin:round;stroke-width:1.3504802788427561px"></path><path d="M518.35,271.92l1.85,5.45s-32,21.37-40.39,29.88S463.52,323.76,464.33,328s10.51,65.14,10.51,65.14l12.22-.88s.78-59.2,2.45-60.69S539.58,298,539.58,298s4.28-.81,6.33.37,13.35,43.61,16.39,45.9,41.62,49.13,41.62,49.13l10.2-2.59s-34-61.38-34-63c.06-.9-7.28-34-14.78-55.33-5.63-16-12-21.85-12-21.85Z" transform="translate(-71.98 -25.21)" style="fill:#263238;stroke:#263238;stroke-linecap:round;stroke-linejoin:round;stroke-width:1.3504802788427561px"></path><path d="M551.88,256.67s6.37,11.42,9.15,15.6,3.19,14.25,3.19,14.25,13.82,39,14.94,45.56,32.77,58.65,32.77,58.65" transform="translate(-71.98 -25.21)" style="fill:none;stroke:#fff;stroke-linecap:round;stroke-linejoin:round;stroke-width:0.6752401394213781px"></path><polyline points="449.85 264.88 467.61 272.8 455.01 271.21" style="fill:none;stroke:#fff;stroke-linecap:round;stroke-linejoin:round;stroke-width:0.6752401394213781px"></polyline><path d="M497.62,317.82,484.8,331.14s-11-.13-7.63,1.57a44.91,44.91,0,0,1,7.25,4.94l0,52.73" transform="translate(-71.98 -25.21)" style="fill:none;stroke:#fff;stroke-linecap:round;stroke-linejoin:round;stroke-width:0.6752401394213781px"></path><path d="M522.25,274s18.7-1.93,31.31-20.28" transform="translate(-71.98 -25.21)" style="fill:none;stroke:#fff;stroke-linecap:round;stroke-linejoin:round;stroke-width:0.6752401394213781px"></path><line x1="460.19" y1="242.38" x2="461.96" y2="246.5" style="fill:none;stroke:#fff;stroke-linecap:round;stroke-linejoin:round;stroke-width:0.6752401394213781px"></line><line x1="471.16" y1="234.97" x2="473.46" y2="238.62" style="fill:none;stroke:#fff;stroke-linecap:round;stroke-linejoin:round;stroke-width:0.6752401394213781px"></line><path d="M491.2,192.6s-1.6,9.43,1.73,25,25.42,54.36,25.42,54.36l3.53-.74a50,50,0,0,0,26-14.61l5.55-5.89s-20-37.66-27.68-51.85-20.3-14.93-24-15.14S490.79,190.46,491.2,192.6Z" transform="translate(-71.98 -25.21)" style="fill:#fff;stroke:#263238;stroke-linecap:round;stroke-linejoin:round;stroke-width:1.3504802788427561px"></path><g style="mix-blend-mode:multiply;opacity:0.5"><path d="M525.75,198.83c-5.47-10.16-13.49-13.41-19-14.52,2.41,1.19,9.84,5.31,13.17,12.47,4,8.62-1.23,21.55-1.23,21.55s0-.74-.06-1.85c-2.72,9.88-7.24,24.79-10.47,34.38l4.06-10.37,1.85-6.77L527.64,239l-7.08-7.08s14.78,8.93,18.78,12.63,5.23,8.31,3.08,13.54a28.34,28.34,0,0,1-4.44,6.61,50.37,50.37,0,0,0,9.9-8.08l5.55-5.89S533.39,213,525.75,198.83Z" transform="translate(-71.98 -25.21)" style="fill:#1DD1A1"></path></g><path d="M515.17,224s8.29-7.85,12.42-11.53" transform="translate(-71.98 -25.21)" style="fill:none;stroke:#263238;stroke-linecap:round;stroke-linejoin:round;stroke-width:0.6752401394213781px"></path><path d="M528,223.18a22.55,22.55,0,0,0,2.45-.73" transform="translate(-71.98 -25.21)" style="fill:none;stroke:#263238;stroke-linecap:round;stroke-linejoin:round;stroke-width:0.6752401394213781px"></path><path d="M512.7,224.36a66.25,66.25,0,0,0,12.1-.55" transform="translate(-71.98 -25.21)" style="fill:none;stroke:#263238;stroke-linecap:round;stroke-linejoin:round;stroke-width:0.6752401394213781px"></path><polygon points="430.56 154.29 414.57 165.53 419.01 171.08 434 158.72 430.56 154.29" style="fill:#fff;stroke:#263238;stroke-linecap:round;stroke-linejoin:round;stroke-width:1.3504802788427561px"></polygon><path d="M521,206.93c-.56,5.4-14.59,51.78-16.4,53.15s-59.6,16.7-59.6,16.7l-3.14-4.65,49.64-24.65,10.7-48.3" transform="translate(-71.98 -25.21)" style="fill:#fff;stroke:#263238;stroke-linecap:round;stroke-linejoin:round;stroke-width:1.3504802788427561px"></path><path d="M518.66,216.48c-.14-3.63-.54-11.26-1.48-9.85-1.23,1.85-3.7,16.62-7.7,27.4s-11.7,15.39-10.16,15.7,2.77,5.23,2.77,5.23l-55.83,21.48c3.12-.83,11.64-3.1,21.25-5.7l37.06-10.66,3.62-9.22C511.42,241.27,515.94,226.36,518.66,216.48Z" transform="translate(-71.98 -25.21)" style="fill:#1DD1A1;mix-blend-mode:multiply;opacity:0.5"></path><path d="M445.24,277.1l-3.41-5-16.57-3.26a1,1,0,0,0-.55,2l6.08,2.53L426.41,277c-1.25,1-6.66,4.22-7.07,5.47-.79,2.43,2.47.43,3.27.14,1.77-.64,2.89-1.44,5.86-2.6.58.79-6.14,4.55-6.91,5.16-.33.25-.85.57-.88,1.05-.1,1.87,3-.05,3.75-.36,2.1-.88,4.16-1.85,6.25-2.73-1.46,1.09-3.91,2.33-5.38,3.42a15.63,15.63,0,0,0-1.94,1.3c-.75.78-.12,1.63,1,1.29a23.57,23.57,0,0,0,3.46-1.78c1.68-.91,2.61-1.74,4.29-2.65-1.22.95-1.81,1.65-3,2.59-.47.37-1.55,1-1.78,1.58-.77,2,3.66-.77,4.16-1.13,1.74-1.25,3.78-2.27,5.41-3.6.23-.19,2.66-2.62,2.68-2.6Z" transform="translate(-71.98 -25.21)" style="fill:#fff;stroke:#263238;stroke-linecap:round;stroke-linejoin:round;stroke-width:0.6752401394213781px"></path><line x1="418.73" y1="181.22" x2="409.72" y2="167.98" style="fill:none;stroke:#263238;stroke-linecap:round;stroke-linejoin:round;stroke-width:0.6752401394213781px"></line><line x1="417.79" y1="180.79" x2="407.75" y2="172.35" style="fill:none;stroke:#263238;stroke-linecap:round;stroke-linejoin:round;stroke-width:0.6752401394213781px"></line><path d="M474.84,393.18l-.9,1-6.36,6.79s-14.31,5.17-14.43,7.17,15.3.88,20,.49,10.28-4.75,10.28-4.75,5.95,1,6.88-3.6-3.24-7.94-3.24-7.94Z" transform="translate(-71.98 -25.21)" style="fill:#fff;stroke:#263238;stroke-linecap:round;stroke-linejoin:round;stroke-width:1.3504802788427561px"></path><path d="M603.92,393.41a112.5,112.5,0,0,0-4.76,11.84c-1.64,5.25-7.07,6.93-4.57,9.75s8.61,1.16,13.65-5.22,9.85-8.77,10-11.43-4.12-7.53-4.12-7.53Z" transform="translate(-71.98 -25.21)" style="fill:#fff;stroke:#263238;stroke-linecap:round;stroke-linejoin:round;stroke-width:1.3504802788427561px"></path><path d="M594.59,415a16.67,16.67,0,0,0,9.76-3.51c4.25-3.55,7.8-10.64,10.28-12.41l2.49-1.78" transform="translate(-71.98 -25.21)" style="fill:none;stroke:#263238;stroke-linecap:round;stroke-linejoin:round;stroke-width:0.6752401394213781px"></path><path d="M454.66,407.59s13.83-1.42,19.51-2.13,7.45-4.61,9.22-5,5.68-1.78,5.68-1.78" transform="translate(-71.98 -25.21)" style="fill:none;stroke:#263238;stroke-linecap:round;stroke-linejoin:round;stroke-width:0.6752401394213781px"></path></g><g id="freepik--Device--inject-98"><path d="M139.09,333s-13.59,15.61-11,37.23,25.53,32.93,25.53,32.93l28.08-54.95s-14.16-14-4.2-31.75C177.51,316.41,154,319.34,139.09,333Z" transform="translate(-71.98 -25.21)" style="fill:#fff;stroke:#263238;stroke-linecap:round;stroke-linejoin:round;stroke-width:1.3504802788427561px"></path><path d="M139.09,333s-13.59,15.61-11,37.23,25.53,32.93,25.53,32.93l28.08-54.95s-14.16-14-4.2-31.75C177.51,316.41,154,319.34,139.09,333Z" transform="translate(-71.98 -25.21)" style="fill:#1DD1A1;mix-blend-mode:multiply;opacity:0.5"></path><path d="M260.31,292.37s-17.66.54-23.59,3.41-44.28,30.17-66.23,62c-7.45,10.8-10.16,16.78-11.15,19.68a57.74,57.74,0,0,1-2.25,5.62c-2.44,5.3-6.49,16.21-5,27.55,2.1,15.87,11.37,31.35,47,37.93s49.16-20,50.05-31.34c0,0,86.64,6.25,140.44,12.34s71.68,2.71,89.69,9.82,22.42,11.74,30,11.86,29.51-24.37,30.06-31.47-6.76-17.19-9.09-17.85-30.51-42.36-30.51-42.36-1.27-8.19-13.61-14.86-73.73-25.25-107.29-34.52S277.46,292.28,260.31,292.37Z" transform="translate(-71.98 -25.21)" style="fill:#fff;stroke:#263238;stroke-linecap:round;stroke-linejoin:round;stroke-width:1.3504802788427561px"></path><path d="M536,408.45a116.89,116.89,0,0,0-23.61-8.9L410.82,371.72,276.94,348.41s-55.65-9-80.47,3c-17.66,8.56-35.69,36.52-44.63,51.95a39.26,39.26,0,0,0,.26,7.24c2.1,15.87,11.37,31.35,47,37.93s49.16-20,50.05-31.34c0,0,86.64,6.25,140.44,12.34s71.68,2.71,89.69,9.82,22.42,11.74,30,11.86,29.51-24.37,30.06-31.47C539.68,416.21,538,411.93,536,408.45Z" transform="translate(-71.98 -25.21)" style="fill:#1DD1A1;mix-blend-mode:multiply;opacity:0.5"></path><path d="M160,388.85S185.53,348,211,345.2s106.4,9.22,106.4,9.22" transform="translate(-71.98 -25.21)" style="fill:none;stroke:#263238;stroke-linecap:round;stroke-linejoin:round;stroke-width:1.3504802788427561px"></path><path d="M325.83,356s49.91,7.21,115.28,23.72,91.79,25.7,95.36,28.83" transform="translate(-71.98 -25.21)" style="fill:none;stroke:#263238;stroke-linecap:round;stroke-linejoin:round;stroke-width:1.3504802788427561px"></path><path d="M374.53,320.56s106.8,27.7,113.55,30.46a24.56,24.56,0,0,1,10.11,7.5" transform="translate(-71.98 -25.21)" style="fill:#fff;stroke:#263238;stroke-linecap:round;stroke-linejoin:round;stroke-width:1.3504802788427561px"></path><path d="M240.83,298l-27.37,39.77s38.63-.81,140.66,15.69L356.48,317s-49.29-15.25-69.64-16.83S240.83,298,240.83,298Z" transform="translate(-71.98 -25.21)" style="fill:#263238;stroke:#263238;stroke-linecap:round;stroke-linejoin:round;stroke-width:1.3504802788427561px"></path><path d="M213.93,337.77c2.09,0,11.23,0,29.24,1.47l-19-17-1.25,1.81Z" transform="translate(-71.98 -25.21)" style="fill:#fff;stroke:#263238;stroke-linecap:round;stroke-linejoin:round;stroke-width:1.3504802788427561px"></path><path d="M240.83,298l-5.21,7.57,45.26,37.48c11.53,1.37,24.71,3.09,39.66,5.26q7.95.9,16.53,1.94l-62.48-50.91C257.48,298.37,240.83,298,240.83,298Z" transform="translate(-71.98 -25.21)" style="fill:#fff;stroke:#263238;stroke-linecap:round;stroke-linejoin:round;stroke-width:1.3504802788427561px"></path><path d="M358.3,324.65l-.36,21.54c5.32-.28,13.63-.1,19.62,3a48.82,48.82,0,0,0-3.28-21.65Z" transform="translate(-71.98 -25.21)" style="fill:#fff;stroke:#263238;stroke-miterlimit:10;stroke-width:1.3504802788427561px"></path><path d="M373.28,325.24a42.72,42.72,0,0,0-4.06-6.79l-10.78-2.27-.11,6.76Z" transform="translate(-71.98 -25.21)" style="fill:#fff;stroke:#263238;stroke-miterlimit:10;stroke-width:1.3504802788427561px"></path><path d="M357.89,349.17l-.1,6L376.14,358a40.87,40.87,0,0,0,1.21-6.57C374,350,367.78,348.27,357.89,349.17Z" transform="translate(-71.98 -25.21)" style="fill:#fff;stroke:#263238;stroke-miterlimit:10;stroke-width:1.3504802788427561px"></path><path d="M399.69,326.49s-10.25-2.53-12-2.42-2.23,3.06-2.23,3.06l3.67,7.25s-.59,1.2,4.75,2.86,10,2,10.6,1.32.45-2.7.84-4.41S402.16,326.69,399.69,326.49Z" transform="translate(-71.98 -25.21)" style="fill:#fff;stroke:#263238;stroke-linecap:round;stroke-linejoin:round;stroke-width:1.3504802788427561px"></path><path d="M406.42,339.21s-10.2-3.28-11.95-3.17-3.52,3.71-3.52,3.71,1.29,9.05,2.45,10.14,12.4,3.69,14.13,3.83,2.4-2.05,2.57-4.28S408.36,339.85,406.42,339.21Z" transform="translate(-71.98 -25.21)" style="fill:#fff;stroke:#263238;stroke-linecap:round;stroke-linejoin:round;stroke-width:1.3504802788427561px"></path><path d="M410.29,353.44s-12.92-3.49-14.15-3.59-3,3.25-2.8,4-.08,7.46-.08,7.46l20.08,4L411.82,356S411.86,355.55,410.29,353.44Z" transform="translate(-71.98 -25.21)" style="fill:#fff;stroke:#263238;stroke-linecap:round;stroke-linejoin:round;stroke-width:1.3504802788427561px"></path><path d="M409.43,329.24,408,331.86l4.35,8.05s.13,1.51,4.28,2.57,11.73,2.66,11.73,2.66,2.17-2.32,1.75-3.35-5-8.6-6.95-9.74S410,328,409.43,329.24Z" transform="translate(-71.98 -25.21)" style="fill:#fff;stroke:#263238;stroke-linecap:round;stroke-linejoin:round;stroke-width:1.3504802788427561px"></path><path d="M416.61,342.48a13.27,13.27,0,0,0-1.51,3.37c-.07,1,1.29,9.06,3.38,11s14.17,3.34,15.9,3.47,2.19-2.56,2.34-4.54-2.54-8.91-4.44-10.05S419.39,342,419.39,342,417.47,341.06,416.61,342.48Z" transform="translate(-71.98 -25.21)" style="fill:#fff;stroke:#263238;stroke-linecap:round;stroke-linejoin:round;stroke-width:1.3504802788427561px"></path><path d="M437.69,360.46a3.9,3.9,0,0,0-1.24-.7c-2.77-.95-13.15-4.4-14.94-3.46-2.08,1.08-2.78,3.76-2.71,6a31,31,0,0,0,.62,4.77L440.86,373,439,362.76a3.9,3.9,0,0,0-1.33-2.3Z" transform="translate(-71.98 -25.21)" style="fill:#fff;stroke:#263238;stroke-linecap:round;stroke-linejoin:round;stroke-width:1.3504802788427561px"></path><path d="M431.62,334.94l-.57,4.19s2.26,6.14,4.67,7.08,13.66,3.55,14.4,3.6,2.43-2.54,2.3-4.05-4.35-8-6.76-9-12.23-2.69-12.23-2.69S431.22,333.67,431.62,334.94Z" transform="translate(-71.98 -25.21)" style="fill:#fff;stroke:#263238;stroke-linecap:round;stroke-linejoin:round;stroke-width:1.3504802788427561px"></path><path d="M440.89,346.86l-2.15,5.3s2.81,8.68,3.21,9.95,16.07,4.49,16.85,4.05,2.57-1.05,2.34-4.55-5.05-11.83-7-12.23-10.25-2.54-11-2.6S441.22,345.89,440.89,346.86Z" transform="translate(-71.98 -25.21)" style="fill:#fff;stroke:#263238;stroke-linecap:round;stroke-linejoin:round;stroke-width:1.3504802788427561px"></path><path d="M446.84,363.24s-2.65,5.27-2.1,7.8a27.19,27.19,0,0,0,1.61,4.85l21.22,5.38s-2.52-9.15-3-12.18-5.87-4.43-10.25-5.77S446.46,361.72,446.84,363.24Z" transform="translate(-71.98 -25.21)" style="fill:#fff;stroke:#263238;stroke-linecap:round;stroke-linejoin:round;stroke-width:1.3504802788427561px"></path><path d="M453.89,339.66l-.33,4.2s5.17,7.12,6.56,8.47,12.66,3.47,13.67,3.3,1.45-2.62,1.07-4.14-5.85-7.92-8-8.83-11.16-3.61-11.16-3.61S453.26,338.12,453.89,339.66Z" transform="translate(-71.98 -25.21)" style="fill:#fff;stroke:#263238;stroke-linecap:round;stroke-linejoin:round;stroke-width:1.3504802788427561px"></path><path d="M463.56,352.85s-1.43,5.61-.73,6.16,3.8,8.75,5.48,9.63,13.9,3.57,15.42,3.19,1.75-3.35.95-5.9-5.75-9.15-8.64-10.37c-2.07-.87-10.23-2.79-10.23-2.79S464.15,351.65,463.56,352.85Z" transform="translate(-71.98 -25.21)" style="fill:#fff;stroke:#263238;stroke-linecap:round;stroke-linejoin:round;stroke-width:1.3504802788427561px"></path><path d="M482.06,371s-7.5-2.82-8.77-2.42-2.84,4.5-2.9,5.25,2.74,9.66,2.74,9.66l19.94,5.78s0-.5,0-3.73-4.8-11.81-5.73-12.63S482.06,371,482.06,371Z" transform="translate(-71.98 -25.21)" style="fill:#fff;stroke:#263238;stroke-linecap:round;stroke-linejoin:round;stroke-width:1.3504802788427561px"></path><path d="M477,346.43a26.82,26.82,0,0,0-.81,3.92c-.11,1.48,4.24,6.3,6.37,7.71s12.61,4.21,13.35,4.27,2.66-2.28,1.35-4.63a29.5,29.5,0,0,0-7.85-7.82C487,348.45,479.49,346.37,477,346.43Z" transform="translate(-71.98 -25.21)" style="fill:#1DD1A1;stroke:#263238;stroke-linecap:round;stroke-linejoin:round;stroke-width:1.3504802788427561px"></path><path d="M487.66,359.69a15.72,15.72,0,0,0-1,3.16c-.07,1,4.79,8.83,5.93,10.16s11.91,3.66,13.14,3.76,4-.19,3-3.74-4-9.27-6.92-10.24-8.25-2.63-10.68-3.32S487.66,359.69,487.66,359.69Z" transform="translate(-71.98 -25.21)" style="fill:#1DD1A1;stroke:#263238;stroke-linecap:round;stroke-linejoin:round;stroke-width:1.3504802788427561px"></path><path d="M498.18,374.69a15.25,15.25,0,0,0-2.19,5.8c-.21,2.72,2,9.36,4.12,11S516.6,397,516.6,397s1.33-4.38,1.79-7.08-6.84-11.23-7.5-12.27S499.93,374.58,498.18,374.69Z" transform="translate(-71.98 -25.21)" style="fill:#1DD1A1;stroke:#263238;stroke-linecap:round;stroke-linejoin:round;stroke-width:1.3504802788427561px"></path><path d="M525.6,432c-5.13-1.35-13.14-2.45-16.12-7s-6.33-10.49-36.62-12.84S238.18,381.11,217.32,380s-37.08,23.78-37.08,23.78-12.74-1.47-20.63-4a18.8,18.8,0,0,1-6.78-3.9,44,44,0,0,0-.73,14.74c2.1,15.87,11.37,31.35,47,37.93s49.16-20,50.05-31.34c0,0,86.64,6.25,140.44,12.34s71.68,2.71,89.69,9.82,22.42,11.74,30,11.86c4.6.07,14.43-8.87,21.61-17.51C528.92,433,527,432.37,525.6,432Z" transform="translate(-71.98 -25.21)" style="fill:#263238;stroke:#263238;stroke-linecap:round;stroke-linejoin:round;stroke-width:1.3504802788427561px"></path><path d="M176.93,409.68s-6.31,13.8-8.79,21.22" transform="translate(-71.98 -25.21)" style="fill:none;stroke:#fff;stroke-linecap:round;stroke-linejoin:round;stroke-width:1.012860209132067px"></path><path d="M185.38,405.1s36.47,8.55,59.11,11.26" transform="translate(-71.98 -25.21)" style="fill:none;stroke:#fff;stroke-linecap:round;stroke-linejoin:round;stroke-width:1.012860209132067px"></path><path d="M213.46,337.77s-22.63-15.09-41.09-16.52S139.09,333,139.09,333s45.46-39.8,57.95-41.21,28.8-3,43.79,6.26Z" transform="translate(-71.98 -25.21)" style="fill:#fff;stroke:#263238;stroke-linecap:round;stroke-linejoin:round;stroke-width:1.3504802788427561px"></path></g></svg>